<svg version="1.1" id="Layer_1" xmlns:x="ns_extend;" xmlns:i="ns_ai;" xmlns:graph="ns_graphs;" xmlns="http://www.w3.org/2000/svg" xmlns:xlink="http://www.w3.org/1999/xlink" x="0px" y="0px" viewBox="0 0 200 200" style="enable-background:new 0 0 200 200;" xml:space="preserve">
 <style type="text/css">
  .st0{fill:url(#SVGID_1_);}
	.st1{fill:url(#SVGID_2_);}
	.st2{fill:#CA0123;}
 </style>
 <metadata>
  <sfw xmlns="ns_sfw;">
   <slices>
   </slices>
   <sliceSourceBounds bottomLeftOrigin="true" height="200" width="200" x="-43.1" y="-300.2">
   </sliceSourceBounds>
  </sfw>
 </metadata>
 <g id="a">
 </g>
 <g id="b">
  <g id="c">
   <g id="d">
    <g id="e">
     <g id="f">
      <linearGradient id="SVGID_1_" gradientUnits="userSpaceOnUse" x1="-384.5322" y1="393.82" x2="-577.6922" y2="393.82" gradientTransform="matrix(-1 0 0 1 -358.6022 -279.32)">
       <stop offset="0" style="stop-color:#CA0123">
       </stop>
       <stop offset="0.15" style="stop-color:#C10123">
       </stop>
       <stop offset="0.4" style="stop-color:#A90224">
       </stop>
       <stop offset="0.71" style="stop-color:#810326">
       </stop>
       <stop offset="0.97" style="stop-color:#5B0428">
       </stop>
      </linearGradient>
      <path class="st0" d="M95.5,175c43.5,0,74.5-35,74.5-75s-31.5-70-70-70c-4,0-9,0.5-11.5,1c4.5-1.5,12-2,16-2
						c51,0,81.5,41,81.5,85c0,51.5-38.5,86-86,86C45,200,0,155,0,100c0-19.5,6-45,26.5-67.5c-13,18-16.5,36-16.5,54
						C10,133,41.5,175,95.5,175z">
      </path>
      <linearGradient id="SVGID_2_" gradientUnits="userSpaceOnUse" x1="263.8582" y1="-242.628" x2="122.1281" y2="-361.548" gradientTransform="matrix(1 0 0 -1 -106 -190.3902)">
       <stop offset="0" style="stop-color:#CA0123">
       </stop>
       <stop offset="0.15" style="stop-color:#C10123">
       </stop>
       <stop offset="0.4" style="stop-color:#A90224">
       </stop>
       <stop offset="0.71" style="stop-color:#810326">
       </stop>
       <stop offset="0.97" style="stop-color:#5B0428">
       </stop>
      </linearGradient>
      <path class="st1" d="M104.5,25C61,25,30,60,30,100s31.5,70,70,70c4,0,9-0.5,11.5-1c-4.5,1.5-12,2-16,2c-51,0-81.5-41-81.5-85
						c0-51.5,38.5-86,86-86c55,0,100,45,100,100c0,19.5-6,45-26.5,67.5c13-18,16.5-36,16.5-54C190,67,158.5,25,104.5,25z">
      </path>
     </g>
     <path class="st2" d="M56.6,52.5v50.1c0,14.2,8,20.8,21.8,20.8c16.6,0,21.8-9,21.8-20.8V52.5H84v51.8c0,2.9-1.3,6.6-5.5,6.6
					c-4.6,0-5.6-2.9-5.6-6.2V52.5H56.6 M106.6,146.8V77.5h16.2v55.4h19.8v13.9L106.6,146.8">
     </path>
    </g>
   </g>
  </g>
 </g>
</svg>