<svg width="100%" viewBox="0 0 690 210" role="img" xmlns="http://www.w3.org/2000/svg" style="">
  <title style="fill:rgb(0, 0, 0);stroke:none;color:rgb(0, 0, 0);stroke-width:1px;stroke-linecap:butt;stroke-linejoin:miter;opacity:1;font-family:&quot;Anthropic Sans&quot;, -apple-system, &quot;system-ui&quot;, &quot;Segoe UI&quot;, sans-serif;font-size:16px;font-weight:400;text-anchor:start;dominant-baseline:auto">Benchtop cardiac pacemaker — project banner</title>
  <desc style="fill:rgb(0, 0, 0);stroke:none;color:rgb(0, 0, 0);stroke-width:1px;stroke-linecap:butt;stroke-linejoin:miter;opacity:1;font-family:&quot;Anthropic Sans&quot;, -apple-system, &quot;system-ui&quot;, &quot;Segoe UI&quot;, sans-serif;font-size:16px;font-weight:400;text-anchor:start;dominant-baseline:auto">Dark banner with a two-cycle ECG heartbeat waveform in teal for a benchtop cardiac pacemaker project</desc>
  <defs>
    <linearGradient id="edgefade" x1="0%" y1="0%" x2="100%" y2="0%">
      <stop offset="0%" stop-color="#0d1117" stop-opacity="1"/>
      <stop offset="9%" stop-color="#0d1117" stop-opacity="0"/>
      <stop offset="91%" stop-color="#0d1117" stop-opacity="0"/>
      <stop offset="100%" stop-color="#0d1117" stop-opacity="1"/>
    </linearGradient>
  </defs>
  <rect width="680" height="200" fill="#0d1117" rx="6" style="fill:rgb(13, 17, 23);stroke:none;color:rgb(0, 0, 0);stroke-width:1px;stroke-linecap:butt;stroke-linejoin:miter;opacity:1;font-family:&quot;Anthropic Sans&quot;, -apple-system, &quot;system-ui&quot;, &quot;Segoe UI&quot;, sans-serif;font-size:16px;font-weight:400;text-anchor:start;dominant-baseline:auto"/>
  <line x1="30" y1="110" x2="650" y2="110" stroke="#7ecdc4" stroke-width="0.5" opacity="0.13" stroke-dasharray="3,6" style="fill:rgb(0, 0, 0);stroke:rgb(126, 205, 196);color:rgb(0, 0, 0);stroke-width:0.5px;stroke-dasharray:3px, 6px;stroke-linecap:butt;stroke-linejoin:miter;opacity:0.13;font-family:&quot;Anthropic Sans&quot;, -apple-system, &quot;system-ui&quot;, &quot;Segoe UI&quot;, sans-serif;font-size:16px;font-weight:400;text-anchor:start;dominant-baseline:auto"/>
  <path d="M 30,110 L 88,110 Q 99,91 120,110 L 140,110 L 147,121 L 153,44 L 159,128 Q 167,110 175,110 L 208,110 C 218,81 234,81 252,110 L 342,110 L 398,110 Q 409,91 430,110 L 450,110 L 457,121 L 463,44 L 469,128 Q 477,110 485,110 L 518,110 C 528,81 544,81 562,110 L 650,110" stroke="#7ecdc4" stroke-width="7" fill="none" stroke-linecap="round" stroke-linejoin="round" opacity="0.10" style="fill:none;stroke:rgb(126, 205, 196);color:rgb(0, 0, 0);stroke-width:7px;stroke-linecap:round;stroke-linejoin:round;opacity:0.1;font-family:&quot;Anthropic Sans&quot;, -apple-system, &quot;system-ui&quot;, &quot;Segoe UI&quot;, sans-serif;font-size:16px;font-weight:400;text-anchor:start;dominant-baseline:auto"/>
  <path d="M 30,110 L 88,110 Q 99,91 120,110 L 140,110 L 147,121 L 153,44 L 159,128 Q 167,110 175,110 L 208,110 C 218,81 234,81 252,110 L 342,110 L 398,110 Q 409,91 430,110 L 450,110 L 457,121 L 463,44 L 469,128 Q 477,110 485,110 L 518,110 C 528,81 544,81 562,110 L 650,110" stroke="#7ecdc4" stroke-width="1.5" fill="none" stroke-linecap="round" stroke-linejoin="round" opacity="0.82" style="fill:none;stroke:rgb(126, 205, 196);color:rgb(0, 0, 0);stroke-width:1.5px;stroke-linecap:round;stroke-linejoin:round;opacity:0.82;font-family:&quot;Anthropic Sans&quot;, -apple-system, &quot;system-ui&quot;, &quot;Segoe UI&quot;, sans-serif;font-size:16px;font-weight:400;text-anchor:start;dominant-baseline:auto"/>
  <rect width="680" height="200" fill="url(#edgefade)" rx="6" style="stroke:none;color:rgb(0, 0, 0);stroke-width:1px;stroke-linecap:butt;stroke-linejoin:miter;opacity:1;font-family:&quot;Anthropic Sans&quot;, -apple-system, &quot;system-ui&quot;, &quot;Segoe UI&quot;, sans-serif;font-size:16px;font-weight:400;text-anchor:start;dominant-baseline:auto"/>
</svg>