<svg xmlns="http://www.w3.org/2000/svg" width="16" height="16" class="bi bi-activity" viewBox="0 0 16 16">
  <defs>
    <linearGradient id="text-gradient" x1="0%" y1="0%" x2="100%" y2="0%" gradientUnits="objectBoundingBox" gradientTransform="rotate(135 0.5 0.5)">
      <stop offset="0%" stop-color="#3c7e8b" />
      <stop offset="100%" stop-color="#7b6aaf" />
    </linearGradient>
  </defs>
  <path fill-rule="evenodd" d="M6 2a.5.5 0 0 1 .47.33L10 12.036l1.53-4.208A.5.5 0 0 1 12 7.5h3.5a.5.5 0 0 1 0 1h-3.15l-1.88 5.17a.5.5 0 0 1-.94 0L6 3.964 4.47 8.171A.5.5 0 0 1 4 8.5H.5a.5.5 0 0 1 0-1h3.15l1.88-5.17A.5.5 0 0 1 6 2" fill="url(#text-gradient)"/>
</svg>