<svg xmlns="http://www.w3.org/2000/svg" width="16" height="16" class="bi bi-code-slash" viewBox="0 0 16 16">
  <defs>
    <!-- Match the site text gradient: linear-gradient(135deg, #3c7e8b, #7b6aaf) -->
    <linearGradient id="text-gradient" x1="0%" y1="0%" x2="100%" y2="0%" gradientUnits="objectBoundingBox" gradientTransform="rotate(135 0.5 0.5)">
      <stop offset="0%" stop-color="#3c7e8b" />
      <stop offset="100%" stop-color="#7b6aaf" />
    </linearGradient>
  </defs>
  <path d="M10.478 1.647a.5.5 0 1 0-.956-.294l-4 13a.5.5 0 0 0 .956.294zM4.854 4.146a.5.5 0 0 1 0 .708L1.707 8l3.147 3.146a.5.5 0 0 1-.708.708l-3.5-3.5a.5.5 0 0 1 0-.708l3.5-3.5a.5.5 0 0 1 .708 0m6.292 0a.5.5 0 0 0 0 .708L14.293 8l-3.147 3.146a.5.5 0 0 0 .708.708l3.5-3.5a.5.5 0 0 0 0-.708l-3.5-3.5a.5.5 0 0 0-.708 0" fill="url(#text-gradient)"/>
</svg>