<svg xmlns="http://www.w3.org/2000/svg" width="16" height="16" class="bi bi-graph-up" viewBox="0 0 16 16">
  <defs>
    <linearGradient id="text-gradient" x1="0%" y1="0%" x2="100%" y2="0%" gradientUnits="objectBoundingBox" gradientTransform="rotate(135 0.5 0.5)">
      <stop offset="0%" stop-color="#3c7e8b" />
      <stop offset="100%" stop-color="#7b6aaf" />
    </linearGradient>
  </defs>
  <path fill-rule="evenodd" d="M0 0h1v15h15v1H0zm14.817 3.113a.5.5 0 0 1 .07.704l-4.5 5.5a.5.5 0 0 1-.74.037L7.06 6.767l-3.656 5.027a.5.5 0 0 1-.808-.588l4-5.5a.5.5 0 0 1 .758-.06l2.609 2.61 4.15-5.073a.5.5 0 0 1 .704-.07" fill="url(#text-gradient)"/>
</svg>